<?xml version="1.0" encoding="utf-8"?>
<!-- Generator: Adobe Illustrator 16.0.0, SVG Export Plug-In . SVG Version: 6.00 Build 0)  -->
<!DOCTYPE svg PUBLIC "-//W3C//DTD SVG 1.1//EN" "http://www.w3.org/Graphics/SVG/1.1/DTD/svg11.dtd">
<svg version="1.1" id="Warstwa_1" xmlns="http://www.w3.org/2000/svg" xmlns:xlink="http://www.w3.org/1999/xlink" x="0px" y="0px"
	 width="23.709px" height="24.302px" viewBox="0 0 23.709 24.302" enable-background="new 0 0 23.709 24.302" xml:space="preserve">
<path fill-rule="evenodd" clip-rule="evenodd" fill="#999999" d="M0,21.014h20.085c0-0.267-0.071-0.604-0.101-0.87
	c-0.077-0.71-0.321-2.412-0.521-2.992c-0.188-0.545-0.248-0.285-0.357-1.15c-0.068-0.549-0.455-0.873-0.88-1.127
	c-0.57-0.341-2.185-0.89-2.841-1.144c-0.22-0.085-0.563-0.16-0.743-0.262c-0.319-0.181-0.532-0.475-0.759-0.746
	c-0.426-0.51-0.62-0.373-0.822-0.685c-0.274-0.422-0.225-1.114-0.029-1.592c0.055-0.135,0.085-0.222,0.139-0.364
	c0.235-0.617,0.108-0.603,0.428-1.079c0.343-0.51,0.481-0.715,0.637-1.371c0.048-0.201,0.115-0.677,0.003-0.889
	c-0.066-0.125-0.102-0.071-0.136-0.366c-0.161-1.401,0.28-2.616-1.039-3.447c-0.749-0.472-1.163-0.219-1.8-0.71
	C11.102,2.096,10.896,2.028,10.674,2h-0.58C9.767,2.034,9.446,2.115,9.202,2.197c-1.51,0.504-2.573,1.676-2.735,3.29
	C6.399,6.155,6.333,7.762,6.513,8.274c0.09,0.256,0.262,0.41,0.372,0.632c0.067,0.134,0.063,0.24,0.153,0.349
	c0.322,0.391,0.334,0.385,0.474,1.032c0.032,0.147,0.074,0.271,0.116,0.387c0.082,0.229,0.398,0.731,0.242,1.203
	c-0.082,0.247-0.544,0.248-1.133,0.842c-0.212,0.214-0.303,0.284-0.578,0.427c-1.534,0.795-4.094,1.019-4.654,1.371
	c-0.144,0.091-0.254,0.449-0.321,0.65c-0.214,0.642-0.27,0.956-0.4,1.607l-0.208,0.797c-0.075,0.272-0.118,0.544-0.177,0.827
	c-0.056,0.27-0.11,0.549-0.168,0.837C0.107,19.862,0,20.365,0,21.014"/>
<path fill-rule="evenodd" clip-rule="evenodd" fill="#FFFFFF" d="M15.132,12.329c0.215-0.116,0.44-0.211,0.676-0.283
	c0.183-0.092,0.373-0.168,0.569-0.229c0.501-0.25,1.063-0.389,1.648-0.389c2.034,0,3.684,1.65,3.684,3.684
	c0,0.85-0.294,1.68-0.846,2.349l-5.458,6.384l-0.188-0.218l-0.382,0.446l-0.188-0.219l-0.381,0.446l-5.514-6.376
	c-0.544-0.66-0.842-1.489-0.842-2.345c0-1.659,1.098-3.063,2.606-3.524c0.182-0.091,0.372-0.167,0.569-0.228
	c0.496-0.249,1.056-0.388,1.648-0.388C13.634,11.441,14.479,11.769,15.132,12.329"/>
<path fill-rule="evenodd" clip-rule="evenodd" fill="#EBC4C4" d="M19.059,17.349c0.408-0.495,0.636-1.127,0.636-1.779
	c0-1.552-1.258-2.809-2.809-2.809c-1.19,0-2.252,0.75-2.648,1.873c-0.4-1.117-1.458-1.861-2.645-1.861
	c-1.55,0-2.808,1.258-2.808,2.809c0,0.652,0.227,1.284,0.642,1.788l4.835,5.591L19.059,17.349z"/>
<path fill-rule="evenodd" clip-rule="evenodd" fill="#F18E8E" d="M19.628,17.121c0.409-0.496,0.636-1.128,0.636-1.78
	c0-1.551-1.257-2.809-2.809-2.809c-1.19,0-2.252,0.75-2.648,1.873c-0.399-1.116-1.457-1.861-2.644-1.861
	c-1.551,0-2.809,1.258-2.809,2.81c0,0.651,0.227,1.284,0.642,1.787l4.834,5.591L19.628,17.121z"/>
<path fill-rule="evenodd" clip-rule="evenodd" fill="#E92026" d="M20.198,16.894c0.408-0.496,0.636-1.128,0.636-1.78
	c0-1.551-1.258-2.809-2.809-2.809c-1.19,0-2.252,0.75-2.648,1.873c-0.399-1.116-1.458-1.861-2.645-1.861
	c-1.551,0-2.808,1.258-2.808,2.809c0,0.652,0.227,1.284,0.643,1.788l4.834,5.591L20.198,16.894z"/>
</svg>
