<?xml version="1.0" encoding="utf-8"?>
<!-- Generator: Adobe Illustrator 16.0.0, SVG Export Plug-In . SVG Version: 6.00 Build 0)  -->
<!DOCTYPE svg PUBLIC "-//W3C//DTD SVG 1.1//EN" "http://www.w3.org/Graphics/SVG/1.1/DTD/svg11.dtd">
<svg version="1.1" id="Warstwa_1" xmlns="http://www.w3.org/2000/svg" xmlns:xlink="http://www.w3.org/1999/xlink" x="0px" y="0px"
	 width="25.387px" height="21.268px" viewBox="0 0 25.387 21.268" enable-background="new 0 0 25.387 21.268" xml:space="preserve">
<g>
	<defs>
		<polygon id="SVGID_1_" points="3.462,15.363 8.761,10.968 13.435,14.328 19.205,6.182 19.857,6.643 13.621,15.448 8.798,11.98 
			3.973,15.982 		"/>
	</defs>
	<clipPath id="SVGID_2_">
		<use xlink:href="#SVGID_1_"  overflow="visible"/>
	</clipPath>
	<linearGradient id="SVGID_3_" gradientUnits="userSpaceOnUse" x1="3.4619" y1="11.0815" x2="19.8574" y2="11.0815">
		<stop  offset="0" style="stop-color:#E92026"/>
		<stop  offset="0.19" style="stop-color:#F18E8E"/>
		<stop  offset="0.65" style="stop-color:#EBC4C4"/>
		<stop  offset="1" style="stop-color:#B3B3B3"/>
	</linearGradient>
	<rect x="3.462" y="6.182" clip-path="url(#SVGID_2_)" fill="url(#SVGID_3_)" width="16.396" height="9.8"/>
</g>
<path fill-rule="evenodd" clip-rule="evenodd" fill="#E92026" d="M3.718,13.907c0.975,0,1.766,0.791,1.766,1.766
	c0,0.976-0.791,1.766-1.766,1.766s-1.766-0.79-1.766-1.766C1.952,14.698,2.743,13.907,3.718,13.907"/>
<path fill-rule="evenodd" clip-rule="evenodd" fill="#F18E8E" d="M8.78,9.708c0.975,0,1.766,0.791,1.766,1.766
	c0,0.975-0.791,1.766-1.766,1.766s-1.766-0.791-1.766-1.766C7.014,10.499,7.805,9.708,8.78,9.708"/>
<path fill-rule="evenodd" clip-rule="evenodd" fill="#EBC4C4" d="M13.527,13.123c0.976,0,1.766,0.79,1.766,1.766
	c0,0.975-0.79,1.766-1.766,1.766c-0.975,0-1.765-0.791-1.765-1.766C11.762,13.913,12.553,13.123,13.527,13.123"/>
<path fill-rule="evenodd" clip-rule="evenodd" fill="#B3B3B3" d="M19.531,4.646c0.976,0,1.766,0.791,1.766,1.766
	s-0.79,1.766-1.766,1.766c-0.975,0-1.766-0.791-1.766-1.766S18.557,4.646,19.531,4.646"/>
<polyline fill="none" stroke="#CCCCCC" stroke-width="0.5669" stroke-miterlimit="22.9256" points="0.284,2 0.284,20.985 
	23.387,20.985 "/>
</svg>
