<?xml version="1.0" encoding="utf-8"?>
<!-- Generator: Adobe Illustrator 16.0.0, SVG Export Plug-In . SVG Version: 6.00 Build 0)  -->
<!DOCTYPE svg PUBLIC "-//W3C//DTD SVG 1.1//EN" "http://www.w3.org/Graphics/SVG/1.1/DTD/svg11.dtd">
<svg version="1.1" id="Warstwa_1" xmlns="http://www.w3.org/2000/svg" xmlns:xlink="http://www.w3.org/1999/xlink" x="0px" y="0px"
	 width="25.617px" height="21.963px" viewBox="0 0 25.617 21.963" enable-background="new 0 0 25.617 21.963" xml:space="preserve">
<path fill-rule="evenodd" clip-rule="evenodd" fill="#FFFFFF" d="M0.36,20.249h18.896c0-0.252-0.067-0.569-0.095-0.819
	c-0.073-0.668-0.302-2.27-0.491-2.815c-0.177-0.513-0.233-0.269-0.335-1.082c-0.065-0.516-0.429-0.821-0.829-1.061
	c-0.536-0.321-2.055-0.837-2.672-1.075c-0.207-0.08-0.53-0.15-0.699-0.246c-0.301-0.171-0.5-0.447-0.715-0.703
	c-0.4-0.479-0.582-0.351-0.772-0.644c-0.258-0.397-0.211-1.047-0.028-1.498c0.052-0.127,0.08-0.209,0.131-0.342
	c0.222-0.581,0.102-0.567,0.402-1.015c0.323-0.48,0.453-0.673,0.6-1.29c0.045-0.189,0.107-0.637,0.003-0.836
	c-0.063-0.118-0.097-0.067-0.128-0.345c-0.151-1.318,0.264-2.461-0.978-3.243c-0.705-0.444-1.094-0.206-1.694-0.668
	c-0.151-0.117-0.344-0.18-0.554-0.207H9.856C9.548,2.392,9.247,2.468,9.017,2.545c-1.42,0.474-2.42,1.577-2.573,3.095
	C6.38,6.269,6.318,7.781,6.488,8.263c0.084,0.24,0.246,0.386,0.35,0.595c0.063,0.126,0.059,0.226,0.144,0.329
	c0.303,0.367,0.315,0.362,0.446,0.971c0.03,0.139,0.069,0.255,0.108,0.364c0.078,0.215,0.375,0.688,0.228,1.132
	c-0.077,0.232-0.512,0.232-1.065,0.792c-0.2,0.201-0.286,0.268-0.543,0.401c-1.443,0.748-3.852,0.958-4.378,1.29
	c-0.135,0.086-0.239,0.423-0.302,0.611c-0.202,0.604-0.254,0.899-0.376,1.513L0.902,17.01c-0.07,0.257-0.111,0.513-0.166,0.779
	c-0.053,0.253-0.104,0.516-0.158,0.787C0.46,19.165,0.36,19.638,0.36,20.249z"/>
<path fill="none" stroke="#EBC4C4" stroke-width="0.7197" stroke-miterlimit="22.9256" d="M0.36,20.249h18.896
	c0-0.252-0.067-0.569-0.095-0.819c-0.073-0.668-0.302-2.27-0.491-2.815c-0.177-0.513-0.233-0.269-0.335-1.082
	c-0.065-0.516-0.429-0.821-0.829-1.061c-0.536-0.321-2.055-0.837-2.672-1.075c-0.207-0.08-0.53-0.15-0.699-0.246
	c-0.301-0.171-0.5-0.447-0.715-0.703c-0.4-0.479-0.582-0.351-0.772-0.644c-0.258-0.397-0.211-1.047-0.028-1.498
	c0.052-0.127,0.08-0.209,0.131-0.342c0.222-0.581,0.102-0.567,0.402-1.015c0.323-0.48,0.453-0.673,0.6-1.29
	c0.045-0.189,0.107-0.637,0.003-0.836c-0.063-0.118-0.097-0.067-0.128-0.345c-0.151-1.318,0.264-2.461-0.978-3.243
	c-0.705-0.444-1.094-0.206-1.694-0.668c-0.151-0.117-0.344-0.18-0.554-0.207H9.856C9.548,2.392,9.247,2.468,9.017,2.545
	c-1.42,0.474-2.42,1.577-2.573,3.095C6.38,6.269,6.318,7.781,6.488,8.263c0.084,0.24,0.246,0.386,0.35,0.595
	c0.063,0.126,0.059,0.226,0.144,0.329c0.303,0.367,0.315,0.362,0.446,0.971c0.03,0.139,0.069,0.255,0.108,0.364
	c0.078,0.215,0.375,0.688,0.228,1.132c-0.077,0.232-0.512,0.232-1.065,0.792c-0.2,0.201-0.286,0.268-0.543,0.401
	c-1.443,0.748-3.852,0.958-4.378,1.29c-0.135,0.086-0.239,0.423-0.302,0.611c-0.202,0.604-0.254,0.899-0.376,1.513L0.902,17.01
	c-0.07,0.257-0.111,0.513-0.166,0.779c-0.053,0.253-0.104,0.516-0.158,0.787C0.46,19.165,0.36,19.638,0.36,20.249z"/>
<path fill-rule="evenodd" clip-rule="evenodd" fill="#FFFFFF" d="M2.361,20.925h18.896c0-0.251-0.067-0.568-0.095-0.818
	c-0.073-0.669-0.303-2.27-0.491-2.815c-0.177-0.513-0.233-0.269-0.336-1.082c-0.064-0.517-0.429-0.821-0.828-1.061
	c-0.536-0.321-2.055-0.837-2.673-1.075c-0.206-0.08-0.53-0.15-0.698-0.246c-0.301-0.171-0.501-0.447-0.715-0.703
	c-0.4-0.479-0.582-0.351-0.773-0.644c-0.258-0.397-0.211-1.048-0.027-1.499c0.052-0.126,0.08-0.209,0.131-0.342
	c0.221-0.581,0.102-0.567,0.402-1.015c0.322-0.48,0.453-0.673,0.6-1.29c0.045-0.189,0.107-0.637,0.002-0.836
	c-0.062-0.118-0.096-0.066-0.128-0.344c-0.151-1.318,0.264-2.461-0.978-3.243c-0.704-0.444-1.094-0.206-1.693-0.668
	c-0.151-0.117-0.344-0.18-0.554-0.207h-0.545c-0.308,0.032-0.609,0.108-0.84,0.185C9.597,3.696,8.597,4.8,8.444,6.318
	C8.38,6.946,8.318,8.458,8.488,8.94c0.084,0.24,0.246,0.386,0.35,0.594c0.063,0.126,0.059,0.226,0.144,0.329
	c0.303,0.367,0.315,0.362,0.446,0.971c0.03,0.139,0.069,0.255,0.108,0.364c0.078,0.215,0.375,0.688,0.228,1.132
	c-0.077,0.232-0.512,0.233-1.065,0.793c-0.199,0.201-0.286,0.268-0.543,0.401c-1.443,0.748-3.852,0.958-4.378,1.29
	c-0.135,0.085-0.239,0.423-0.302,0.611c-0.201,0.604-0.254,0.899-0.376,1.513l-0.196,0.75c-0.07,0.256-0.111,0.512-0.166,0.778
	c-0.053,0.253-0.104,0.516-0.158,0.786C2.461,19.842,2.361,20.316,2.361,20.925z"/>
<path fill="none" stroke="#F18E8E" stroke-width="0.7197" stroke-miterlimit="22.9256" d="M2.361,20.925h18.896
	c0-0.251-0.067-0.568-0.095-0.818c-0.073-0.669-0.303-2.27-0.491-2.815c-0.177-0.513-0.233-0.269-0.336-1.082
	c-0.064-0.517-0.429-0.821-0.828-1.061c-0.536-0.321-2.055-0.837-2.673-1.075c-0.206-0.08-0.53-0.15-0.698-0.246
	c-0.301-0.171-0.501-0.447-0.715-0.703c-0.4-0.479-0.582-0.351-0.773-0.644c-0.258-0.397-0.211-1.048-0.027-1.499
	c0.052-0.126,0.08-0.209,0.131-0.342c0.221-0.581,0.102-0.567,0.402-1.015c0.322-0.48,0.453-0.673,0.6-1.29
	c0.045-0.189,0.107-0.637,0.002-0.836c-0.062-0.118-0.096-0.066-0.128-0.344c-0.151-1.318,0.264-2.461-0.978-3.243
	c-0.704-0.444-1.094-0.206-1.693-0.668c-0.151-0.117-0.344-0.18-0.554-0.207h-0.545c-0.308,0.032-0.609,0.108-0.84,0.185
	C9.597,3.696,8.597,4.8,8.444,6.318C8.38,6.946,8.318,8.458,8.488,8.94c0.084,0.24,0.246,0.386,0.35,0.594
	c0.063,0.126,0.059,0.226,0.144,0.329c0.303,0.367,0.315,0.362,0.446,0.971c0.03,0.139,0.069,0.255,0.108,0.364
	c0.078,0.215,0.375,0.688,0.228,1.132c-0.077,0.232-0.512,0.233-1.065,0.793c-0.199,0.201-0.286,0.268-0.543,0.401
	c-1.443,0.748-3.852,0.958-4.378,1.29c-0.135,0.085-0.239,0.423-0.302,0.611c-0.201,0.604-0.254,0.899-0.376,1.513l-0.196,0.75
	c-0.07,0.256-0.111,0.512-0.166,0.778c-0.053,0.253-0.104,0.516-0.158,0.786C2.461,19.842,2.361,20.316,2.361,20.925z"/>
<path fill-rule="evenodd" clip-rule="evenodd" fill="#CCCCCC" d="M4.361,21.603h18.896c0-0.251-0.066-0.568-0.094-0.818
	c-0.074-0.669-0.303-2.27-0.491-2.815c-0.178-0.513-0.234-0.269-0.336-1.082c-0.064-0.517-0.429-0.821-0.829-1.061
	c-0.535-0.321-2.055-0.837-2.672-1.075c-0.207-0.08-0.53-0.15-0.699-0.247c-0.301-0.17-0.5-0.446-0.714-0.702
	c-0.4-0.479-0.583-0.351-0.773-0.645c-0.258-0.397-0.211-1.047-0.027-1.498c0.051-0.126,0.079-0.209,0.13-0.342
	c0.222-0.581,0.102-0.567,0.402-1.015c0.323-0.48,0.453-0.672,0.6-1.29c0.045-0.189,0.108-0.637,0.003-0.836
	c-0.063-0.118-0.096-0.066-0.128-0.345c-0.151-1.318,0.264-2.46-0.978-3.243c-0.705-0.444-1.094-0.206-1.693-0.668
	c-0.151-0.116-0.345-0.18-0.555-0.207h-0.545c-0.308,0.032-0.609,0.108-0.84,0.186c-1.42,0.474-2.42,1.577-2.573,3.095
	c-0.063,0.628-0.125,2.141,0.044,2.623c0.085,0.24,0.246,0.386,0.35,0.595c0.063,0.126,0.059,0.226,0.144,0.328
	c0.303,0.368,0.315,0.362,0.446,0.971c0.03,0.139,0.069,0.255,0.108,0.364c0.078,0.215,0.375,0.688,0.228,1.132
	c-0.077,0.232-0.512,0.232-1.066,0.792c-0.199,0.202-0.285,0.269-0.543,0.402c-1.443,0.747-3.852,0.958-4.378,1.29
	c-0.136,0.085-0.24,0.423-0.302,0.611c-0.202,0.604-0.254,0.899-0.377,1.513l-0.195,0.749c-0.071,0.257-0.111,0.513-0.167,0.779
	c-0.052,0.253-0.104,0.516-0.158,0.786C4.462,20.52,4.361,20.993,4.361,21.603z"/>
<path fill="none" stroke="#E92026" stroke-width="0.7197" stroke-miterlimit="22.9256" d="M4.361,21.603h18.896
	c0-0.251-0.066-0.568-0.094-0.818c-0.074-0.669-0.303-2.27-0.491-2.815c-0.178-0.513-0.234-0.269-0.336-1.082
	c-0.064-0.517-0.429-0.821-0.829-1.061c-0.535-0.321-2.055-0.837-2.672-1.075c-0.207-0.08-0.53-0.15-0.699-0.247
	c-0.301-0.17-0.5-0.446-0.714-0.702c-0.4-0.479-0.583-0.351-0.773-0.645c-0.258-0.397-0.211-1.047-0.027-1.498
	c0.051-0.126,0.079-0.209,0.13-0.342c0.222-0.581,0.102-0.567,0.402-1.015c0.323-0.48,0.453-0.672,0.6-1.29
	c0.045-0.189,0.108-0.637,0.003-0.836c-0.063-0.118-0.096-0.066-0.128-0.345c-0.151-1.318,0.264-2.46-0.978-3.243
	c-0.705-0.444-1.094-0.206-1.693-0.668c-0.151-0.116-0.345-0.18-0.555-0.207h-0.545c-0.308,0.032-0.609,0.108-0.84,0.186
	c-1.42,0.474-2.42,1.577-2.573,3.095c-0.063,0.628-0.125,2.141,0.044,2.623c0.085,0.24,0.246,0.386,0.35,0.595
	c0.063,0.126,0.059,0.226,0.144,0.328c0.303,0.368,0.315,0.362,0.446,0.971c0.03,0.139,0.069,0.255,0.108,0.364
	c0.078,0.215,0.375,0.688,0.228,1.132c-0.077,0.232-0.512,0.232-1.066,0.792c-0.199,0.202-0.285,0.269-0.543,0.402
	c-1.443,0.747-3.852,0.958-4.378,1.29c-0.136,0.085-0.24,0.423-0.302,0.611c-0.202,0.604-0.254,0.899-0.377,1.513l-0.195,0.749
	c-0.071,0.257-0.111,0.513-0.167,0.779c-0.052,0.253-0.104,0.516-0.158,0.786C4.462,20.52,4.361,20.993,4.361,21.603z"/>
</svg>
