<?xml version="1.0" encoding="utf-8"?>
<!-- Generator: Adobe Illustrator 16.0.0, SVG Export Plug-In . SVG Version: 6.00 Build 0)  -->
<!DOCTYPE svg PUBLIC "-//W3C//DTD SVG 1.1//EN" "http://www.w3.org/Graphics/SVG/1.1/DTD/svg11.dtd">
<svg version="1.1" id="Warstwa_1" xmlns="http://www.w3.org/2000/svg" xmlns:xlink="http://www.w3.org/1999/xlink" x="0px" y="0px"
	 width="20.896px" height="19.888px" viewBox="0 0 20.896 19.888" enable-background="new 0 0 20.896 19.888" xml:space="preserve">
<path fill-rule="evenodd" clip-rule="evenodd" fill="#B3B3B3" d="M0,19.888h18.896c0-0.251-0.066-0.568-0.094-0.819
	c-0.074-0.668-0.303-2.269-0.491-2.815c-0.178-0.512-0.234-0.268-0.336-1.081c-0.065-0.517-0.429-0.821-0.829-1.062
	c-0.535-0.32-2.055-0.836-2.672-1.075c-0.206-0.079-0.53-0.15-0.699-0.246c-0.301-0.171-0.5-0.446-0.714-0.702
	c-0.4-0.479-0.583-0.351-0.773-0.645c-0.258-0.397-0.211-1.047-0.027-1.498c0.051-0.127,0.079-0.209,0.13-0.342
	c0.222-0.581,0.102-0.567,0.402-1.015c0.323-0.48,0.453-0.673,0.6-1.291c0.045-0.189,0.108-0.637,0.003-0.835
	c-0.063-0.118-0.096-0.067-0.128-0.345c-0.151-1.318,0.264-2.461-0.978-3.243c-0.705-0.444-1.094-0.206-1.693-0.668
	C10.444,2.09,10.251,2.027,10.041,2H9.496C9.188,2.032,8.887,2.108,8.656,2.185c-1.42,0.474-2.42,1.577-2.573,3.095
	C6.02,5.909,5.958,7.421,6.127,7.903c0.084,0.24,0.246,0.386,0.35,0.595c0.063,0.126,0.059,0.226,0.144,0.329
	c0.303,0.367,0.315,0.362,0.446,0.971c0.03,0.139,0.069,0.255,0.108,0.364c0.078,0.215,0.375,0.688,0.228,1.132
	c-0.077,0.231-0.512,0.232-1.065,0.792c-0.2,0.201-0.285,0.268-0.543,0.401c-1.443,0.748-3.852,0.959-4.378,1.291
	c-0.135,0.085-0.239,0.422-0.302,0.611c-0.201,0.604-0.254,0.898-0.376,1.513l-0.196,0.749c-0.07,0.257-0.111,0.512-0.166,0.778
	c-0.052,0.253-0.104,0.516-0.158,0.787C0.1,18.804,0,19.278,0,19.888"/>
<path fill-rule="evenodd" clip-rule="evenodd" fill="#F18E8E" d="M14.057,13.41c0.551,0,0.996,0.445,0.996,0.996
	c0,0.55-0.445,0.996-0.996,0.996c-0.55,0-0.996-0.446-0.996-0.996C13.061,13.855,13.507,13.41,14.057,13.41 M10.588,11.633
	l0.668-0.738l0.855,0.539l1.266-0.691l0.211-0.833l1.009,0.012l0.093,0.832l1.442,0.644l0.772-0.515l0.774,0.785l-0.527,0.621
	l0.516,1.289l0.961,0.281l-0.023,1.09l-1.043,0.211l-0.434,1.278l0.551,0.832l-0.891,0.715l-0.681-0.527l-1.395,0.504l-0.07,0.914
	l-1.137,0.012l-0.152-0.879l-1.301-0.551l-0.797,0.48l-0.68-0.809l0.504-0.633l-0.68-1.359l-0.785-0.247l-0.07-0.937l1.031-0.259
	l0.516-1.324L10.588,11.633z"/>
<path fill-rule="evenodd" clip-rule="evenodd" fill="#EBC4C4" d="M14.086,13.557c0.465,0,0.843,0.378,0.843,0.843
	s-0.378,0.842-0.843,0.842s-0.842-0.377-0.842-0.842S13.621,13.557,14.086,13.557"/>
<path fill-rule="evenodd" clip-rule="evenodd" fill="#E92026" d="M9.837,14.114l0.667-0.074c0.133-0.014,0.24-0.113,0.264-0.244
	c0.087-0.469,0.268-0.904,0.538-1.295c0.077-0.109,0.071-0.256-0.013-0.36l-0.411-0.512l0.414-0.413l0.517,0.412
	c0.104,0.083,0.249,0.088,0.358,0.014c0.382-0.262,0.807-0.438,1.261-0.526c0.13-0.025,0.229-0.132,0.243-0.263l0.073-0.666h0.587
	l0.073,0.655c0.015,0.133,0.115,0.24,0.247,0.264c0.473,0.082,0.913,0.261,1.308,0.529c0.109,0.075,0.255,0.069,0.358-0.013
	l0.508-0.406l0.413,0.413l-0.401,0.499c-0.084,0.104-0.089,0.252-0.012,0.361c0.276,0.396,0.461,0.836,0.548,1.311
	c0.023,0.131,0.131,0.23,0.263,0.245l0.636,0.07v0.582l-0.637,0.069c-0.133,0.015-0.24,0.114-0.264,0.245
	c-0.087,0.473-0.272,0.912-0.549,1.307c-0.077,0.11-0.072,0.258,0.012,0.362l0.404,0.503l-0.413,0.412l-0.514-0.409
	c-0.103-0.083-0.247-0.088-0.357-0.015c-0.394,0.268-0.832,0.444-1.302,0.526c-0.132,0.023-0.233,0.131-0.248,0.264l-0.073,0.663
	H13.75l-0.074-0.674c-0.015-0.131-0.113-0.238-0.243-0.263c-0.455-0.088-0.88-0.266-1.263-0.528c-0.11-0.075-0.256-0.07-0.358,0.014
	L11.3,17.582l-0.414-0.413l0.408-0.508c0.084-0.104,0.089-0.251,0.013-0.36c-0.27-0.389-0.449-0.821-0.535-1.285
	c-0.024-0.131-0.132-0.23-0.264-0.245l-0.669-0.073L9.837,14.114L9.837,14.114z M9.503,15.266l0.723,0.079
	c0.096,0.393,0.25,0.764,0.461,1.108l-0.44,0.548c-0.097,0.12-0.087,0.294,0.022,0.402l0.796,0.794
	c0.108,0.108,0.281,0.118,0.401,0.021l0.552-0.44c0.338,0.205,0.7,0.356,1.082,0.452l0.081,0.728c0.017,0.153,0.146,0.27,0.299,0.27
	h1.127c0.153,0,0.282-0.116,0.299-0.269l0.079-0.713c0.397-0.094,0.774-0.246,1.124-0.455l0.555,0.443
	c0.119,0.095,0.292,0.086,0.401-0.022l0.797-0.794c0.108-0.109,0.118-0.282,0.021-0.402l-0.437-0.543
	c0.218-0.352,0.377-0.73,0.476-1.131l0.688-0.076c0.153-0.017,0.27-0.146,0.27-0.299v-1.123c0-0.153-0.116-0.282-0.269-0.3
	l-0.688-0.075c-0.098-0.402-0.257-0.783-0.475-1.136l0.434-0.539c0.097-0.12,0.087-0.293-0.021-0.402l-0.797-0.794
	c-0.109-0.108-0.282-0.117-0.401-0.022l-0.549,0.439c-0.351-0.211-0.73-0.365-1.13-0.458l-0.079-0.706
	c-0.017-0.152-0.146-0.268-0.299-0.268h-1.127c-0.153,0-0.282,0.115-0.299,0.268l-0.08,0.72c-0.382,0.096-0.743,0.247-1.08,0.451
	l-0.558-0.445c-0.12-0.096-0.292-0.086-0.401,0.022l-0.797,0.794c-0.108,0.108-0.118,0.282-0.021,0.402l0.445,0.553
	c-0.213,0.347-0.369,0.722-0.466,1.117l-0.72,0.079c-0.152,0.018-0.268,0.146-0.268,0.3v1.123
	C9.235,15.121,9.351,15.25,9.503,15.266z"/>
<path fill-rule="evenodd" clip-rule="evenodd" fill="#E92026" d="M14.057,13.805c0.333,0,0.604,0.27,0.604,0.601
	c0,0.33-0.271,0.6-0.604,0.6c-0.332,0-0.603-0.27-0.603-0.6C13.454,14.075,13.725,13.805,14.057,13.805 M14.057,15.608
	c0.665,0,1.206-0.539,1.206-1.203c0-0.663-0.541-1.203-1.206-1.203s-1.205,0.54-1.205,1.203
	C12.852,15.069,13.392,15.608,14.057,15.608z"/>
</svg>
