<?xml version="1.0" encoding="utf-8"?>
<!-- Generator: Adobe Illustrator 16.0.0, SVG Export Plug-In . SVG Version: 6.00 Build 0)  -->
<!DOCTYPE svg PUBLIC "-//W3C//DTD SVG 1.1//EN" "http://www.w3.org/Graphics/SVG/1.1/DTD/svg11.dtd">
<svg version="1.1" id="Warstwa_1" xmlns="http://www.w3.org/2000/svg" xmlns:xlink="http://www.w3.org/1999/xlink" x="0px" y="0px"
	 width="15.136px" height="25.427px" viewBox="0 0 15.136 25.427" enable-background="new 0 0 15.136 25.427" xml:space="preserve">
<path fill-rule="evenodd" clip-rule="evenodd" fill="#E6E6E6" d="M5.141,18.514V6.467C4.884,4.153,3.291,2.903,0.36,2.717v14.344
	L5.141,18.514z"/>
<path fill="none" stroke="#EBC4C4" stroke-width="0.7197" stroke-miterlimit="22.9256" d="M5.141,18.514V6.467
	C4.884,4.153,3.291,2.903,0.36,2.717v14.344L5.141,18.514z"/>
<line fill="none" stroke="#EBC4C4" stroke-width="0.7197" stroke-miterlimit="22.9256" x1="5.141" y1="18.514" x2="5.141" y2="25.427"/>
<path fill-rule="evenodd" clip-rule="evenodd" fill="#CCCCCC" d="M8.935,18.387V6.341c-0.257-2.314-1.851-3.563-4.782-3.75v14.344
	L8.935,18.387z"/>
<path fill="none" stroke="#F18E8E" stroke-width="0.7197" stroke-miterlimit="22.9256" d="M8.935,18.387V6.341
	c-0.257-2.314-1.851-3.563-4.782-3.75v14.344L8.935,18.387z"/>
<line fill="none" stroke="#F18E8E" stroke-width="0.7197" stroke-miterlimit="22.9256" x1="8.935" y1="18.387" x2="8.935" y2="25.301"/>
<path fill-rule="evenodd" clip-rule="evenodd" fill="#E92026" d="M12.776,18.18V6.134C12.52,3.82,10.926,2.57,7.995,2.384v14.343
	L12.776,18.18z"/>
<path fill="none" stroke="#E92026" stroke-width="0.7197" stroke-miterlimit="22.9256" d="M12.776,18.18V6.134
	C12.52,3.82,10.926,2.57,7.995,2.384v14.343L12.776,18.18z"/>
<line fill="none" stroke="#E92026" stroke-width="0.7197" stroke-miterlimit="22.9256" x1="12.776" y1="18.18" x2="12.776" y2="25.094"/>
</svg>
