<?xml version="1.0" encoding="utf-8"?>
<!-- Generator: Adobe Illustrator 16.0.0, SVG Export Plug-In . SVG Version: 6.00 Build 0)  -->
<!DOCTYPE svg PUBLIC "-//W3C//DTD SVG 1.1//EN" "http://www.w3.org/Graphics/SVG/1.1/DTD/svg11.dtd">
<svg version="1.1" id="Warstwa_1" xmlns="http://www.w3.org/2000/svg" xmlns:xlink="http://www.w3.org/1999/xlink" x="0px" y="0px"
	 width="18.088px" height="24.002px" viewBox="0 0 18.088 24.002" enable-background="new 0 0 18.088 24.002" xml:space="preserve">
<path fill="none" stroke="#E92026" stroke-width="0.4799" stroke-miterlimit="22.9256" d="M2.76,2.768L14.832,2.24
	c0.566-0.025,1.017,0.644,1.017,1.213v17.026c0,0.57-0.461,0.967-1.017,0.876L2.76,19.393c-0.554-0.091-1.016-0.639-1.016-1.213
	V3.644C1.744,3.069,2.194,2.792,2.76,2.768z"/>
<path fill-rule="evenodd" clip-rule="evenodd" fill="#FFFFFF" d="M2.108,2.884l11.845-0.075c0.567-0.003,1.017,0.644,1.017,1.212
	v17.253c0,0.571-0.464,0.988-1.017,0.876L2.108,19.735c-0.55-0.112-1.016-0.639-1.016-1.213V3.76
	C1.092,3.186,1.542,2.888,2.108,2.884z"/>
<path fill="none" stroke="#EBC4C4" stroke-width="0.4799" stroke-miterlimit="22.9256" d="M2.108,2.884l11.845-0.075
	c0.567-0.003,1.017,0.644,1.017,1.212v17.253c0,0.571-0.464,0.988-1.017,0.876L2.108,19.735c-0.55-0.112-1.016-0.639-1.016-1.213
	V3.76C1.092,3.186,1.542,2.888,2.108,2.884z"/>
<path fill-rule="evenodd" clip-rule="evenodd" fill="#FFFFFF" d="M1.456,3l11.62,0.604c0.565,0.029,1.016,0.642,1.016,1.213V22.07
	c0,0.572-0.463,0.991-1.016,0.876l-11.62-2.415c-0.552-0.115-1.016-0.639-1.016-1.213V3.876C0.439,3.302,0.89,2.972,1.456,3z"/>
<path fill="none" stroke="#F18E8E" stroke-width="0.4799" stroke-miterlimit="22.9256" d="M1.456,3l11.62,0.604
	c0.565,0.029,1.016,0.642,1.016,1.213V22.07c0,0.572-0.463,0.991-1.016,0.876l-11.62-2.415c-0.552-0.115-1.016-0.639-1.016-1.213
	V3.876C0.439,3.302,0.89,2.972,1.456,3z"/>
<path fill-rule="evenodd" clip-rule="evenodd" fill="#E6E6E6" d="M1.256,3.118L12.196,4.4c0.563,0.066,1.017,0.642,1.017,1.213
	v17.253c0,0.57-0.467,0.997-1.017,0.875l-10.94-2.415c-0.551-0.121-1.016-0.638-1.016-1.212V3.993
	C0.24,3.419,0.694,3.052,1.256,3.118z"/>
<path fill="none" stroke="#E92026" stroke-width="0.4799" stroke-miterlimit="22.9256" d="M1.256,3.118L12.196,4.4
	c0.563,0.066,1.017,0.642,1.017,1.213v17.253c0,0.57-0.467,0.997-1.017,0.875l-10.94-2.415c-0.551-0.121-1.016-0.638-1.016-1.212
	V3.993C0.24,3.419,0.694,3.052,1.256,3.118z"/>
<line fill="none" stroke="#E92026" stroke-width="0.4799" stroke-miterlimit="22.9256" x1="2.539" y1="3.268" x2="2.539" y2="21.59"/>
</svg>
