<?xml version="1.0" encoding="utf-8"?>
<!-- Generator: Adobe Illustrator 16.0.0, SVG Export Plug-In . SVG Version: 6.00 Build 0)  -->
<!DOCTYPE svg PUBLIC "-//W3C//DTD SVG 1.1//EN" "http://www.w3.org/Graphics/SVG/1.1/DTD/svg11.dtd">
<svg version="1.1" id="Warstwa_1" xmlns="http://www.w3.org/2000/svg" xmlns:xlink="http://www.w3.org/1999/xlink" x="0px" y="0px"
	 width="25.357px" height="23.847px" viewBox="0 0 25.357 23.847" enable-background="new 0 0 25.357 23.847" xml:space="preserve">
<path fill-rule="evenodd" clip-rule="evenodd" fill="#B3B3B3" d="M7.322,7.81c0.835,0,1.513,0.677,1.513,1.513
	s-0.677,1.513-1.513,1.513S5.81,10.158,5.81,9.322S6.487,7.81,7.322,7.81 M2.055,5.114l1.014-1.122l1.3,0.819l1.922-1.05l0.32-1.264
	l1.531,0.018l0.142,1.263l2.189,0.979l1.174-0.783l1.175,1.192L12.021,6.11l0.783,1.958l1.459,0.427l-0.036,1.655l-1.583,0.32
	l-0.659,1.94l0.836,1.263l-1.353,1.086l-1.032-0.801l-2.118,0.766l-0.107,1.388l-1.726,0.018l-0.231-1.335l-1.975-0.836l-1.21,0.729
	L2.037,13.46l0.765-0.961L1.77,10.435l-1.192-0.374L0.471,8.637l1.566-0.392L2.82,6.234L2.055,5.114z"/>
<path fill-rule="evenodd" clip-rule="evenodd" fill="#E6E6E6" d="M7.367,8.035c0.706,0,1.279,0.573,1.279,1.278
	c0,0.706-0.573,1.279-1.279,1.279s-1.279-0.573-1.279-1.279C6.088,8.607,6.661,8.035,7.367,8.035"/>
<path fill-rule="evenodd" clip-rule="evenodd" fill="#E92026" d="M0.916,8.879l1.014-0.112c0.201-0.022,0.363-0.174,0.4-0.372
	C2.46,7.685,2.735,7.023,3.146,6.43c0.116-0.166,0.108-0.389-0.019-0.547L2.502,5.105l0.628-0.627l0.785,0.626
	C4.073,5.23,4.294,5.238,4.46,5.125c0.581-0.397,1.224-0.666,1.915-0.799c0.197-0.038,0.346-0.2,0.369-0.399l0.112-1.011h0.891
	l0.11,0.995c0.022,0.202,0.176,0.365,0.376,0.4c0.717,0.125,1.385,0.396,1.985,0.805c0.166,0.113,0.387,0.105,0.543-0.021
	l0.771-0.616l0.629,0.626l-0.61,0.758c-0.127,0.159-0.135,0.383-0.018,0.549c0.42,0.601,0.7,1.27,0.832,1.99
	c0.036,0.199,0.199,0.351,0.399,0.373l0.966,0.105v0.885l-0.967,0.106c-0.201,0.022-0.364,0.173-0.4,0.372
	c-0.133,0.717-0.413,1.385-0.834,1.984c-0.117,0.167-0.11,0.391,0.018,0.55l0.615,0.764l-0.629,0.626l-0.778-0.622
	c-0.157-0.125-0.376-0.134-0.543-0.021c-0.598,0.406-1.263,0.675-1.978,0.8c-0.2,0.034-0.354,0.198-0.376,0.4l-0.111,1.007H6.856
	l-0.113-1.023c-0.021-0.199-0.171-0.361-0.369-0.399c-0.691-0.134-1.337-0.403-1.917-0.802c-0.167-0.114-0.388-0.106-0.544,0.02
	l-0.776,0.62l-0.629-0.627l0.62-0.771c0.126-0.158,0.135-0.38,0.019-0.547c-0.409-0.59-0.683-1.248-0.813-1.952
	c-0.037-0.198-0.2-0.349-0.4-0.372L0.917,9.765L0.916,8.879L0.916,8.879z M0.408,10.629l1.096,0.121
	c0.146,0.595,0.381,1.158,0.701,1.682l-0.669,0.833c-0.146,0.182-0.132,0.445,0.034,0.61l1.209,1.206
	c0.165,0.164,0.427,0.179,0.608,0.033l0.839-0.669c0.512,0.311,1.062,0.541,1.643,0.687l0.122,1.104
	c0.025,0.232,0.221,0.408,0.455,0.408h1.71c0.233,0,0.429-0.176,0.455-0.407l0.119-1.083c0.604-0.142,1.176-0.372,1.708-0.69
	l0.842,0.673c0.181,0.145,0.443,0.131,0.609-0.033l1.21-1.206c0.166-0.165,0.181-0.43,0.033-0.611l-0.663-0.824
	c0.331-0.534,0.573-1.109,0.722-1.718l1.047-0.114c0.232-0.026,0.408-0.222,0.408-0.455V8.47c0-0.233-0.176-0.43-0.408-0.455
	l-1.044-0.114c-0.147-0.611-0.39-1.188-0.72-1.724l0.658-0.819c0.146-0.182,0.133-0.445-0.033-0.611l-1.21-1.206
	c-0.165-0.165-0.428-0.178-0.609-0.034l-0.833,0.667C9.913,3.854,9.338,3.62,8.73,3.478L8.611,2.407C8.585,2.176,8.389,2,8.156,2
	h-1.71C6.212,2,6.017,2.175,5.991,2.407L5.87,3.5C5.291,3.646,4.742,3.875,4.23,4.185L3.383,3.508
	C3.202,3.363,2.939,3.377,2.774,3.542L1.565,4.748C1.399,4.913,1.384,5.177,1.531,5.358l0.676,0.84
	c-0.323,0.527-0.56,1.096-0.706,1.697l-1.093,0.12C0.176,8.041,0,8.237,0,8.47v1.705C0,10.408,0.176,10.604,0.408,10.629z"/>
<path fill-rule="evenodd" clip-rule="evenodd" fill="#E92026" d="M7.322,8.411c0.505,0,0.917,0.409,0.917,0.912
	s-0.411,0.912-0.917,0.912S6.407,9.825,6.407,9.322S6.817,8.411,7.322,8.411 M7.322,11.148c1.01,0,1.832-0.819,1.832-1.827
	S8.333,7.495,7.322,7.495c-1.009,0-1.831,0.82-1.831,1.827S6.313,11.148,7.322,11.148z"/>
<path fill-rule="evenodd" clip-rule="evenodd" fill="#CCCCCC" d="M18.535,5.857c0.55,0,0.996,0.446,0.996,0.996
	S19.085,7.85,18.535,7.85s-0.996-0.446-0.996-0.996S17.985,5.857,18.535,5.857 M15.066,4.082l0.668-0.738l0.855,0.54l1.266-0.691
	l0.211-0.833l1.008,0.012l0.094,0.832l1.441,0.645l0.773-0.516l0.773,0.786l-0.527,0.621l0.516,1.289l0.961,0.281l-0.023,1.09
	l-1.043,0.211l-0.434,1.277l0.551,0.832l-0.891,0.715l-0.68-0.527l-1.395,0.504l-0.07,0.914l-1.137,0.012l-0.152-0.879l-1.301-0.551
	l-0.797,0.481l-0.68-0.809l0.504-0.633l-0.68-1.359L14.094,7.34l-0.07-0.938l1.031-0.258L15.57,4.82L15.066,4.082z"/>
<path fill-rule="evenodd" clip-rule="evenodd" fill="#FFFFFF" d="M18.564,6.005c0.465,0,0.842,0.377,0.842,0.842
	S19.029,7.69,18.564,7.69s-0.842-0.377-0.842-0.842S18.1,6.005,18.564,6.005"/>
<path fill-rule="evenodd" clip-rule="evenodd" fill="#F18E8E" d="M14.315,6.562l0.668-0.074c0.132-0.015,0.239-0.114,0.264-0.245
	c0.086-0.468,0.268-0.904,0.538-1.294c0.076-0.11,0.071-0.257-0.013-0.36l-0.411-0.513l0.414-0.413l0.517,0.412
	c0.104,0.083,0.249,0.088,0.358,0.014c0.382-0.262,0.806-0.439,1.261-0.526c0.13-0.025,0.229-0.131,0.243-0.263l0.073-0.666h0.587
	l0.072,0.655c0.015,0.133,0.116,0.241,0.248,0.264c0.473,0.083,0.912,0.261,1.308,0.53c0.109,0.075,0.255,0.069,0.357-0.013
	l0.508-0.406l0.414,0.413L21.32,4.575c-0.084,0.105-0.09,0.252-0.013,0.362c0.277,0.396,0.461,0.836,0.548,1.311
	c0.024,0.131,0.131,0.231,0.264,0.245l0.636,0.07v0.583l-0.637,0.07c-0.133,0.014-0.24,0.114-0.265,0.245
	c-0.087,0.472-0.271,0.912-0.549,1.307c-0.077,0.11-0.072,0.258,0.012,0.362l0.405,0.502l-0.414,0.413l-0.513-0.41
	c-0.104-0.082-0.248-0.088-0.357-0.014c-0.394,0.267-0.832,0.444-1.302,0.526c-0.133,0.022-0.233,0.13-0.248,0.263l-0.073,0.663
	h-0.587l-0.073-0.674c-0.015-0.131-0.113-0.238-0.243-0.263c-0.456-0.087-0.881-0.265-1.263-0.527
	c-0.11-0.076-0.256-0.07-0.358,0.013l-0.512,0.408l-0.414-0.413l0.408-0.507c0.083-0.104,0.089-0.251,0.013-0.361
	c-0.27-0.389-0.45-0.821-0.536-1.285c-0.024-0.131-0.131-0.23-0.263-0.245l-0.67-0.074L14.315,6.562L14.315,6.562z M13.981,7.714
	l0.722,0.08c0.097,0.392,0.251,0.763,0.462,1.107l-0.44,0.548c-0.097,0.12-0.087,0.293,0.021,0.402l0.797,0.794
	c0.108,0.108,0.281,0.118,0.4,0.022l0.553-0.44c0.337,0.205,0.699,0.356,1.082,0.452l0.08,0.728c0.017,0.153,0.146,0.269,0.3,0.269
	h1.126c0.154,0,0.283-0.116,0.3-0.269l0.078-0.713c0.398-0.093,0.775-0.245,1.125-0.455l0.555,0.443
	c0.119,0.095,0.292,0.086,0.401-0.022l0.796-0.794c0.109-0.109,0.119-0.283,0.022-0.403l-0.438-0.542
	c0.219-0.352,0.378-0.731,0.476-1.132l0.689-0.075c0.153-0.017,0.269-0.146,0.269-0.299V6.292c0-0.154-0.115-0.283-0.269-0.3
	l-0.688-0.075c-0.097-0.402-0.256-0.783-0.474-1.136l0.434-0.539c0.097-0.12,0.087-0.293-0.022-0.402l-0.796-0.794
	c-0.109-0.108-0.282-0.117-0.401-0.022l-0.549,0.438c-0.352-0.211-0.73-0.365-1.131-0.458l-0.078-0.706
	c-0.018-0.152-0.146-0.268-0.3-0.268h-1.126c-0.154,0-0.283,0.115-0.3,0.268l-0.08,0.72c-0.381,0.095-0.742,0.247-1.079,0.451
	L15.94,3.025c-0.119-0.096-0.292-0.086-0.4,0.021l-0.797,0.794c-0.109,0.109-0.119,0.282-0.021,0.402l0.444,0.553
	c-0.213,0.347-0.368,0.722-0.465,1.117l-0.72,0.079c-0.153,0.017-0.269,0.146-0.269,0.3v1.123
	C13.713,7.568,13.828,7.698,13.981,7.714z"/>
<path fill-rule="evenodd" clip-rule="evenodd" fill="#F18E8E" d="M18.535,6.253c0.333,0,0.604,0.269,0.604,0.6
	s-0.271,0.601-0.604,0.601s-0.604-0.27-0.604-0.601S18.203,6.253,18.535,6.253 M18.535,8.056c0.665,0,1.206-0.54,1.206-1.203
	c0-0.664-0.541-1.204-1.206-1.204s-1.206,0.54-1.206,1.204C17.329,7.517,17.87,8.056,18.535,8.056z"/>
<path fill-rule="evenodd" clip-rule="evenodd" fill="#E6E6E6" d="M13.522,18.028c0.55,0,0.996,0.446,0.996,0.996
	s-0.446,0.996-0.996,0.996s-0.996-0.446-0.996-0.996S12.973,18.028,13.522,18.028 M10.053,16.253l0.668-0.738l0.856,0.539
	l1.266-0.691l0.211-0.833l1.008,0.013l0.094,0.832l1.441,0.645l0.773-0.516l0.773,0.785l-0.527,0.621l0.516,1.289l0.961,0.281
	l-0.023,1.09l-1.043,0.211l-0.434,1.277l0.551,0.832l-0.891,0.715l-0.68-0.527l-1.395,0.504l-0.07,0.914l-1.137,0.012l-0.152-0.879
	l-1.301-0.551l-0.797,0.48l-0.68-0.809l0.504-0.633l-0.68-1.359l-0.785-0.246l-0.07-0.938l1.031-0.258l0.516-1.324L10.053,16.253z"
	/>
<path fill-rule="evenodd" clip-rule="evenodd" fill="#FFFFFF" d="M13.552,18.177c0.465,0,0.842,0.377,0.842,0.842
	s-0.377,0.842-0.842,0.842s-0.843-0.377-0.843-0.842S13.087,18.177,13.552,18.177"/>
<path fill-rule="evenodd" clip-rule="evenodd" fill="#EBC4C4" d="M9.303,18.732l0.668-0.073c0.132-0.015,0.239-0.114,0.264-0.245
	c0.086-0.468,0.267-0.903,0.538-1.294c0.076-0.11,0.071-0.257-0.013-0.36l-0.412-0.513l0.414-0.413l0.517,0.413
	c0.103,0.082,0.249,0.087,0.358,0.013c0.382-0.262,0.806-0.438,1.261-0.526c0.13-0.024,0.228-0.131,0.242-0.263l0.074-0.666h0.587
	l0.072,0.655c0.015,0.134,0.116,0.24,0.248,0.264c0.473,0.083,0.912,0.261,1.308,0.53c0.109,0.074,0.255,0.068,0.357-0.014
	l0.508-0.405l0.414,0.412l-0.402,0.499c-0.083,0.104-0.089,0.252-0.012,0.361c0.277,0.396,0.461,0.837,0.548,1.311
	c0.024,0.131,0.131,0.231,0.264,0.246l0.636,0.069v0.582l-0.637,0.07c-0.133,0.015-0.24,0.113-0.265,0.245
	c-0.087,0.472-0.271,0.911-0.549,1.306c-0.077,0.11-0.072,0.258,0.012,0.362l0.405,0.503l-0.414,0.413l-0.513-0.41
	c-0.104-0.082-0.248-0.088-0.357-0.014c-0.394,0.267-0.832,0.443-1.303,0.526c-0.132,0.022-0.232,0.13-0.247,0.264l-0.073,0.663
	h-0.587l-0.074-0.674c-0.014-0.132-0.112-0.238-0.242-0.264c-0.456-0.088-0.881-0.265-1.263-0.527
	c-0.11-0.075-0.255-0.07-0.358,0.013L10.766,22.2l-0.415-0.413l0.408-0.508c0.084-0.104,0.089-0.251,0.013-0.36
	c-0.27-0.389-0.45-0.821-0.536-1.285c-0.024-0.131-0.131-0.23-0.263-0.245l-0.669-0.073L9.303,18.732L9.303,18.732z M8.968,19.886
	l0.723,0.079c0.096,0.392,0.25,0.763,0.461,1.107L9.711,21.62c-0.096,0.12-0.087,0.294,0.022,0.402l0.797,0.794
	c0.108,0.108,0.281,0.118,0.401,0.022l0.552-0.44c0.337,0.204,0.7,0.355,1.083,0.451l0.08,0.729c0.017,0.152,0.146,0.269,0.3,0.269
	h1.126c0.154,0,0.283-0.116,0.3-0.269l0.078-0.713c0.398-0.093,0.775-0.245,1.125-0.455l0.555,0.443
	c0.119,0.095,0.292,0.086,0.4-0.021l0.797-0.795c0.109-0.108,0.119-0.282,0.022-0.402l-0.438-0.542
	c0.219-0.352,0.378-0.731,0.476-1.132l0.689-0.075c0.153-0.017,0.269-0.146,0.269-0.3v-1.123c0-0.153-0.115-0.282-0.269-0.3
	l-0.688-0.075c-0.097-0.402-0.257-0.782-0.474-1.135l0.434-0.539c0.097-0.12,0.087-0.294-0.022-0.402l-0.797-0.795
	c-0.108-0.108-0.281-0.117-0.4-0.021l-0.549,0.438c-0.352-0.211-0.73-0.364-1.131-0.458l-0.078-0.705
	c-0.018-0.153-0.146-0.269-0.3-0.269h-1.126c-0.154,0-0.283,0.115-0.3,0.269l-0.08,0.72c-0.381,0.096-0.743,0.246-1.08,0.45
	l-0.558-0.445c-0.12-0.096-0.292-0.086-0.401,0.022L9.73,16.012c-0.109,0.108-0.119,0.282-0.022,0.402l0.445,0.553
	c-0.213,0.348-0.369,0.722-0.465,1.117l-0.72,0.079C8.816,18.181,8.7,18.31,8.7,18.463v1.123C8.7,19.739,8.816,19.868,8.968,19.886z
	"/>
<path fill-rule="evenodd" clip-rule="evenodd" fill="#EBC4C4" d="M13.522,18.424c0.333,0,0.604,0.27,0.604,0.601
	s-0.271,0.601-0.604,0.601s-0.604-0.27-0.604-0.601S13.189,18.424,13.522,18.424 M13.522,20.228c0.665,0,1.206-0.54,1.206-1.203
	c0-0.664-0.541-1.204-1.206-1.204s-1.206,0.54-1.206,1.204C12.316,19.688,12.857,20.228,13.522,20.228z"/>
</svg>
