<?xml version="1.0" encoding="utf-8"?>
<!-- Generator: Adobe Illustrator 16.0.0, SVG Export Plug-In . SVG Version: 6.00 Build 0)  -->
<!DOCTYPE svg PUBLIC "-//W3C//DTD SVG 1.1//EN" "http://www.w3.org/Graphics/SVG/1.1/DTD/svg11.dtd">
<svg version="1.1" id="Warstwa_1" xmlns="http://www.w3.org/2000/svg" xmlns:xlink="http://www.w3.org/1999/xlink" x="0px" y="0px"
	 width="25.692px" height="18.586px" viewBox="0 0 25.692 18.586" enable-background="new 0 0 25.692 18.586" xml:space="preserve">
<path fill-rule="evenodd" clip-rule="evenodd" fill="#666666" d="M0.842,16.159h3.015c0.268,0,0.487,0.22,0.487,0.487v1.213
	c0,0.269-0.219,0.487-0.487,0.487H0.842c-0.269,0-0.487-0.219-0.487-0.487v-1.213C0.354,16.378,0.573,16.159,0.842,16.159z"/>
<path fill="none" stroke="#666666" stroke-width="0.4799" stroke-miterlimit="22.9256" d="M0.842,16.159h3.015
	c0.268,0,0.487,0.22,0.487,0.487v1.213c0,0.269-0.219,0.487-0.487,0.487H0.842c-0.269,0-0.487-0.219-0.487-0.487v-1.213
	C0.354,16.378,0.573,16.159,0.842,16.159z"/>
<path fill-rule="evenodd" clip-rule="evenodd" fill="#666666" d="M19.826,16.159h3.016c0.269,0,0.487,0.22,0.487,0.487v1.213
	c0,0.269-0.219,0.487-0.487,0.487h-3.016c-0.268,0-0.486-0.219-0.486-0.487v-1.213C19.34,16.378,19.559,16.159,19.826,16.159z"/>
<path fill="none" stroke="#666666" stroke-width="0.4799" stroke-miterlimit="22.9256" d="M19.826,16.159h3.016
	c0.269,0,0.487,0.22,0.487,0.487v1.213c0,0.269-0.219,0.487-0.487,0.487h-3.016c-0.268,0-0.486-0.219-0.486-0.487v-1.213
	C19.34,16.378,19.559,16.159,19.826,16.159z"/>
<path fill-rule="evenodd" clip-rule="evenodd" fill="#B3B3B3" d="M20.577,6.05l0.369,0.814l2.251-0.312
	c0.355-0.049-0.015-0.801-0.299-1.02c-0.4-0.309-0.818-0.341-1.323-0.37c-0.165-0.01-0.335,0.098-0.443,0.222
	c-0.083,0.095-0.054,0.357-0.16,0.423L20.577,6.05z"/>
<path fill-rule="evenodd" clip-rule="evenodd" fill="#B3B3B3" d="M3.116,6.05l-0.37,0.814l-2.25-0.312
	C0.14,6.503,0.51,5.751,0.794,5.532c0.4-0.309,0.818-0.341,1.322-0.37c0.165-0.01,0.335,0.098,0.444,0.222
	c0.083,0.095,0.053,0.357,0.16,0.423L3.116,6.05z"/>
<path fill-rule="evenodd" clip-rule="evenodd" fill="#FFFFFF" d="M20.577,6.05L18.764,3.46c-0.316-0.453-0.759-0.828-1.324-0.889
	c-2.019-0.215-3.563-0.294-5.593-0.333c-2.03,0.038-3.575,0.117-5.593,0.333C5.687,2.632,5.245,3.007,4.928,3.46L3.116,6.05
	l-0.37,0.814L2.524,7.16C2.395,7.332,2.118,7.309,1.932,7.419C1.634,7.594,1.294,7.738,1.081,8.011
	C0.748,8.437,0.428,8.92,0.341,9.453c-0.19,1.168-0.049,2.368-0.074,3.551l0.111,3.515h3.404l8.064-0.147l8.065,0.147h3.385
	l0.13-3.515c-0.025-1.184,0.116-2.383-0.074-3.551c-0.087-0.533-0.407-1.017-0.74-1.442c-0.213-0.272-0.553-0.417-0.851-0.592
	c-0.186-0.11-0.463-0.087-0.592-0.259l-0.223-0.296L20.577,6.05z"/>
<path fill="none" stroke="#666666" stroke-width="0.4799" stroke-miterlimit="22.9256" d="M20.577,6.05L18.764,3.46
	c-0.316-0.453-0.759-0.828-1.324-0.889c-2.019-0.215-3.563-0.294-5.593-0.333c-2.03,0.038-3.575,0.117-5.593,0.333
	C5.687,2.632,5.245,3.007,4.928,3.46L3.116,6.05l-0.37,0.814L2.524,7.16C2.395,7.332,2.118,7.309,1.932,7.419
	C1.634,7.594,1.294,7.738,1.081,8.011C0.748,8.437,0.428,8.92,0.341,9.453c-0.19,1.168-0.049,2.368-0.074,3.551l0.111,3.515h3.404
	l8.064-0.147l8.065,0.147h3.385l0.13-3.515c-0.025-1.184,0.116-2.383-0.074-3.551c-0.087-0.533-0.407-1.017-0.74-1.442
	c-0.213-0.272-0.553-0.417-0.851-0.592c-0.186-0.11-0.463-0.087-0.592-0.259l-0.223-0.296L20.577,6.05z"/>
<polygon fill-rule="evenodd" clip-rule="evenodd" fill="#E92026" points="12.854,5.925 12.882,10.664 14.657,10.664 14.468,5.925 
	"/>
<path fill-rule="evenodd" clip-rule="evenodd" fill="#EBC4C4" d="M11.846,5.925h7.746c0.049-0.858-0.735-2.028-1.479-2.687
	c-0.575-0.509-3.586-0.606-4.421-0.606h-1.845h-1.845c-0.834,0-3.846,0.097-4.42,0.606C4.836,3.896,4.052,5.067,4.101,5.925H11.846z
	"/>
<path fill-rule="evenodd" clip-rule="evenodd" fill="#F18E8E" d="M17.428,10.623c0.132-0.431,0.352-1.491,0.685-1.775
	c0.216-0.185,0.471-0.333,0.739-0.426c1.163-0.403,2.203-0.518,3.422-0.37c0.074,0.259,0.172,0.512,0.223,0.777
	c0.018,0.097,0.051,0.226-0.02,0.296c-0.588,0.588-0.821,0.542-1.368,1.332L17.428,10.623z"/>
<path fill="none" stroke="#B3B3B3" stroke-width="0.2398" stroke-miterlimit="22.9256" d="M12.063,15.488
	c1.011-0.013,2.026,0.053,3.033-0.037c0.385-0.034,0.766-0.158,1.11-0.333c0.479-0.243,0.856-0.657,1.332-0.906
	c0.437-0.229,0.907-0.401,1.387-0.518c0.711-0.173,1.726-0.144,2.479-0.167h0.74l-0.167,0.389c-0.696,0.013-1.395-0.013-2.09,0.037
	c-0.338,0.024-0.675,0.088-0.999,0.185c-0.419,0.126-0.828,0.288-1.221,0.481c-0.252,0.123-0.259,0.184-0.703,0.462"/>
<polygon fill-rule="evenodd" clip-rule="evenodd" fill="#E92026" points="10.838,5.925 10.811,10.664 9.035,10.664 9.224,5.925 "/>
<path fill-rule="evenodd" clip-rule="evenodd" fill="#F18E8E" d="M6.265,10.623c-0.132-0.431-0.352-1.491-0.685-1.775
	c-0.216-0.185-0.471-0.333-0.74-0.426c-1.163-0.403-2.203-0.518-3.422-0.37C1.345,8.311,1.247,8.564,1.197,8.829
	C1.178,8.926,1.146,9.055,1.215,9.125c0.589,0.588,0.821,0.542,1.369,1.332L6.265,10.623z"/>
<path fill="none" stroke="#B3B3B3" stroke-width="0.2398" stroke-miterlimit="22.9256" d="M11.629,15.488
	c-1.011-0.013-2.026,0.053-3.033-0.037c-0.385-0.034-0.766-0.158-1.11-0.333c-0.479-0.243-0.856-0.657-1.332-0.906
	c-0.437-0.229-0.908-0.401-1.387-0.518c-0.711-0.173-1.726-0.144-2.479-0.167h-0.74l0.167,0.389c0.697,0.013,1.395-0.013,2.09,0.037
	c0.338,0.024,0.675,0.088,0.999,0.185c0.419,0.126,0.828,0.288,1.221,0.481c0.252,0.123,0.259,0.184,0.703,0.462"/>
<rect x="7.685" y="12.212" fill-rule="evenodd" clip-rule="evenodd" fill="#B3B3B3" width="8.323" height="1.665"/>
</svg>
