<?xml version="1.0" encoding="utf-8"?>
<!-- Generator: Adobe Illustrator 16.0.0, SVG Export Plug-In . SVG Version: 6.00 Build 0)  -->
<!DOCTYPE svg PUBLIC "-//W3C//DTD SVG 1.1//EN" "http://www.w3.org/Graphics/SVG/1.1/DTD/svg11.dtd">
<svg version="1.1" id="Warstwa_1" xmlns="http://www.w3.org/2000/svg" xmlns:xlink="http://www.w3.org/1999/xlink" x="0px" y="0px"
	 width="25.478px" height="20.7px" viewBox="0 0 25.478 20.7" enable-background="new 0 0 25.478 20.7" xml:space="preserve">
<polygon fill-rule="evenodd" clip-rule="evenodd" fill="#B3B3B3" points="4.06,6.742 20.681,3.808 23.059,15.37 6.957,20.243 "/>
<polygon fill="none" stroke="#E92026" stroke-width="0.7197" stroke-miterlimit="22.9256" points="4.06,6.742 20.681,3.808 
	23.059,15.37 6.957,20.243 "/>
<path fill="#666666" d="M4.9,6.229C4.88,6.146,4.87,6.086,4.86,6.002C4.849,5.917,4.844,5.831,4.844,5.747
	c0-0.53,0.197-1.013,0.516-1.364c0.325-0.357,0.776-0.579,1.275-0.579c0.499,0,0.951,0.222,1.275,0.579
	c0.318,0.351,0.516,0.833,0.516,1.364c0,0.392-0.109,0.766-0.301,1.078C7.931,7.141,7.65,7.396,7.311,7.546
	C7.166,7.632,7.003,7.557,6.93,7.417c-0.079-0.15,0.003-0.314,0.153-0.39c0.231-0.103,0.425-0.279,0.56-0.499
	c0.139-0.226,0.217-0.497,0.217-0.782c0-0.385-0.141-0.733-0.367-0.983C7.271,4.521,6.968,4.371,6.635,4.371
	c-0.333,0-0.637,0.15-0.857,0.393c-0.227,0.25-0.368,0.598-0.368,0.983c0,0.063,0.004,0.126,0.011,0.188
	C5.43,5.998,5.444,6.073,5.458,6.132L4.9,6.229z"/>
<line fill="none" stroke="#FFFFFF" stroke-width="0.5669" stroke-miterlimit="22.9256" x1="7.985" y1="8.353" x2="10.017" y2="18.212"/>
<line fill="none" stroke="#FFFFFF" stroke-width="0.5669" stroke-miterlimit="22.9256" x1="11.327" y1="7.711" x2="13.286" y2="17.258"/>
<line fill="none" stroke="#FFFFFF" stroke-width="0.5669" stroke-miterlimit="22.9256" x1="14.655" y1="7.009" x2="16.625" y2="16.321"/>
<line fill="none" stroke="#FFFFFF" stroke-width="0.5669" stroke-miterlimit="22.9256" x1="17.988" y1="6.321" x2="19.877" y2="15.345"/>
<line fill="none" stroke="#FFFFFF" stroke-width="0.5669" stroke-miterlimit="22.9256" x1="5.979" y1="11.016" x2="20.533" y2="7.907"/>
<line fill="none" stroke="#FFFFFF" stroke-width="0.5669" stroke-miterlimit="22.9256" x1="6.606" y1="13.663" x2="21.059" y2="10.288"/>
<line fill="none" stroke="#FFFFFF" stroke-width="0.5669" stroke-miterlimit="22.9256" x1="7.244" y1="16.368" x2="21.548" y2="12.711"/>
<polygon fill="#EBC4C4" points="3.882,7.619 0.815,18.091 3.225,17.531 3.203,18.117 0,18.863 3.63,6.453 "/>
<polygon fill="#F18E8E" points="4.086,8.565 3.701,19.86 6.343,19.087 6.461,19.643 3.111,20.621 3.631,6.458 "/>
<path fill="#666666" d="M16.495,4.181c-0.019-0.075-0.027-0.128-0.037-0.203c-0.01-0.077-0.015-0.154-0.015-0.23
	c0-0.477,0.178-0.911,0.465-1.227C17.2,2.199,17.605,2,18.055,2s0.855,0.199,1.147,0.521c0.286,0.315,0.464,0.75,0.464,1.227
	c0,0.353-0.098,0.688-0.271,0.969c-0.175,0.285-0.428,0.514-0.733,0.649c-0.13,0.077-0.276,0.01-0.342-0.115
	c-0.071-0.135,0.003-0.283,0.137-0.351c0.209-0.092,0.383-0.251,0.504-0.449c0.124-0.203,0.195-0.446,0.195-0.703
	c0-0.347-0.127-0.66-0.33-0.884c-0.199-0.218-0.472-0.354-0.771-0.354s-0.572,0.136-0.771,0.354c-0.204,0.225-0.33,0.538-0.33,0.884
	c0,0.057,0.003,0.114,0.01,0.168c0.007,0.058,0.02,0.125,0.033,0.178L16.495,4.181z"/>
<polygon fill-rule="evenodd" clip-rule="evenodd" fill="#CCCCCC" points="4.086,8.565 3.701,19.86 6.343,19.087 "/>
<polygon fill-rule="evenodd" clip-rule="evenodd" fill="#E6E6E6" points="3.225,17.531 3.547,8.763 0.815,18.091 "/>
</svg>
