<?xml version="1.0" encoding="utf-8"?>
<!-- Generator: Adobe Illustrator 16.0.0, SVG Export Plug-In . SVG Version: 6.00 Build 0)  -->
<!DOCTYPE svg PUBLIC "-//W3C//DTD SVG 1.1//EN" "http://www.w3.org/Graphics/SVG/1.1/DTD/svg11.dtd">
<svg version="1.1" id="Warstwa_1" xmlns="http://www.w3.org/2000/svg" xmlns:xlink="http://www.w3.org/1999/xlink" x="0px" y="0px"
	 width="19.438px" height="22.873px" viewBox="0 0 19.438 22.873" enable-background="new 0 0 19.438 22.873" xml:space="preserve">
<path fill-rule="evenodd" clip-rule="evenodd" fill="#898989" d="M8.719,8.283c3.243,0,5.872,2.629,5.872,5.872
	c0,3.243-2.629,5.872-5.872,5.872c-3.243,0-5.872-2.629-5.872-5.872C2.847,10.912,5.476,8.283,8.719,8.283 M8.719,5.436
	c4.815,0,8.719,3.903,8.719,8.719s-3.903,8.719-8.719,8.719C3.904,22.873,0,18.97,0,14.154S3.904,5.436,8.719,5.436z"/>
<rect x="6.934" y="2.36" fill-rule="evenodd" clip-rule="evenodd" fill="#E92026" width="3.57" height="9.046"/>
<rect x="6.934" y="2.36" fill="none" stroke="#FFFFFF" stroke-width="0.7197" stroke-miterlimit="22.9256" width="3.57" height="9.046"/>
</svg>
