<?xml version="1.0" encoding="utf-8"?>
<!-- Generator: Adobe Illustrator 16.0.0, SVG Export Plug-In . SVG Version: 6.00 Build 0)  -->
<!DOCTYPE svg PUBLIC "-//W3C//DTD SVG 1.1//EN" "http://www.w3.org/Graphics/SVG/1.1/DTD/svg11.dtd">
<svg version="1.1" id="Warstwa_1" xmlns="http://www.w3.org/2000/svg" xmlns:xlink="http://www.w3.org/1999/xlink" x="0px" y="0px"
	 width="24.845px" height="18.25px" viewBox="0 0 24.845 18.25" enable-background="new 0 0 24.845 18.25" xml:space="preserve">
<path fill-rule="evenodd" clip-rule="evenodd" fill="#E6E6E6" d="M11.422,2.36c6.11,0,11.063,4.953,11.063,11.063
	c0,0.433-0.01,0.663-0.051,1.09c-0.039,0.411-0.409,0.575-0.65,0.572h-7.556c0,1.55-1.256,2.806-2.806,2.806
	c-1.55,0-2.806-1.256-2.806-2.806c-2.496,0-4.993,0-7.489,0c-0.493-0.035-0.704-0.438-0.728-0.716
	c-0.026-0.312-0.04-0.628-0.04-0.946C0.36,7.313,5.313,2.36,11.422,2.36z"/>
<path fill="none" stroke="#999999" stroke-width="0.7197" stroke-miterlimit="22.9256" d="M11.422,2.36
	c6.11,0,11.063,4.953,11.063,11.063c0,0.433-0.01,0.663-0.051,1.09c-0.039,0.411-0.409,0.575-0.65,0.572h-7.556
	c0,1.55-1.256,2.806-2.806,2.806c-1.55,0-2.806-1.256-2.806-2.806c-2.496,0-4.993,0-7.489,0c-0.493-0.035-0.704-0.438-0.728-0.716
	c-0.026-0.312-0.04-0.628-0.04-0.946C0.36,7.313,5.313,2.36,11.422,2.36z"/>
<line fill="none" stroke="#999999" stroke-width="0.5669" stroke-miterlimit="22.9256" x1="11.422" y1="3.476" x2="11.422" y2="5.435"/>
<line fill="none" stroke="#999999" stroke-width="0.5669" stroke-miterlimit="22.9256" x1="6.449" y1="4.808" x2="7.429" y2="6.505"/>
<line fill="none" stroke="#999999" stroke-width="0.5669" stroke-miterlimit="22.9256" x1="2.808" y1="8.449" x2="4.505" y2="9.429"/>
<line fill="none" stroke="#999999" stroke-width="0.5669" stroke-miterlimit="22.9256" x1="1.476" y1="13.422" x2="3.435" y2="13.422"/>
<line fill="none" stroke="#999999" stroke-width="0.5669" stroke-miterlimit="22.9256" x1="16.396" y1="4.808" x2="15.416" y2="6.505"/>
<line fill="none" stroke="#999999" stroke-width="0.5669" stroke-miterlimit="22.9256" x1="20.037" y1="8.449" x2="18.34" y2="9.429"/>
<line fill="none" stroke="#999999" stroke-width="0.5669" stroke-miterlimit="22.9256" x1="21.369" y1="13.422" x2="19.41" y2="13.422"/>
<path fill-rule="evenodd" clip-rule="evenodd" fill="#EBC4C4" d="M12.676,14.532c0.023,0.053,0.044,0.108,0.061,0.166
	c0.212,0.725-0.204,1.485-0.929,1.698c-0.726,0.213-1.486-0.203-1.699-0.929c-0.017-0.058-0.03-0.115-0.039-0.173L8.745,7.086
	l0.192-0.478l0.428,0.296L12.676,14.532z"/>
<path fill-rule="evenodd" clip-rule="evenodd" fill="#F18E8E" d="M12.792,15.089c0,0.058-0.004,0.117-0.012,0.176
	c-0.1,0.75-0.788,1.277-1.537,1.179c-0.75-0.1-1.277-0.788-1.178-1.537c0.008-0.06,0.02-0.117,0.034-0.174l2.108-8.042l0.369-0.36
	l0.271,0.444L12.792,15.089z"/>
<path fill-rule="evenodd" clip-rule="evenodd" fill="#E92026" d="M12.673,15.646c-0.024,0.053-0.052,0.105-0.082,0.156
	c-0.395,0.646-1.237,0.85-1.882,0.456c-0.646-0.394-0.85-1.236-0.457-1.882c0.031-0.051,0.065-0.1,0.102-0.145l5.181-6.503
	l0.483-0.18l0.068,0.516L12.673,15.646z"/>
</svg>
